/* XPM */
static char * Tall_xpm[] = {
"20 20 2 1",
" 	c #2c313a",
".	c #a5adbe",
"                    ",
"                    ",
"                    ",
"                    ",
"   ....... ......   ",
"   ....... ......   ",
"   ....... ......   ",
"   ....... ......   ",
"   ....... ......   ",
"   ....... ......   ",
"   .......          ",
"   ....... ......   ",
"   ....... ......   ",
"   ....... ......   ",
"   ....... ......   ",
"   ....... ......   ",
"                    ",
"                    ",
"                    ",
"                    "};

